<svg width="592" height="96" viewBox="0 0 592 96" fill="none" xmlns="http://www.w3.org/2000/svg">
<g clip-path="url(#clip0_9_23791)">
<path d="M0.4534 7.37401V28.4273C0.4534 34.8395 8.26658 38.2594 13.0413 33.7708L35.8297 12.7175C40.8215 8.1221 37.566 0 30.7295 0H7.94103C3.81741 0 0.4534 3.31296 0.4534 7.37401Z" fill="white"/>
<path d="M108.319 0H85.5303C78.8022 0 75.4382 8.1221 80.43 12.7175L103.218 33.7708C107.993 38.1525 115.806 34.8395 115.806 28.4273V7.37401C115.806 3.31296 112.442 0 108.319 0Z" fill="white"/>
<path d="M63.2844 51.4043L103.218 88.3812C107.993 92.7629 115.806 89.4499 115.806 83.0378V61.7707C115.806 59.7402 114.938 57.8165 113.419 56.4272L63.2844 9.9389C60.3545 7.26715 55.9053 7.26715 52.9753 9.9389L2.84076 56.4272C1.32153 57.8165 0.4534 59.7402 0.4534 61.7707V83.0378C0.4534 89.4499 8.26658 92.8698 13.0413 88.3812L52.9753 51.4043C55.9053 48.7326 60.3545 48.7326 63.2844 51.4043Z" fill="white"/>
</g>
<path d="M161.645 77.2059L148.688 29.5909H162.048L169.426 61.5822H169.86L177.548 29.5909H190.661L198.473 61.3962H198.876L206.13 29.5909H219.459L206.532 77.2059H192.552L184.368 47.2605H183.779L175.595 77.2059H161.645Z" fill="white"/>
<path d="M239.71 49.6785V77.2059H226.504V13.7193H239.338V37.9917H239.896C240.97 35.1811 242.706 32.9802 245.103 31.3889C247.501 29.7769 250.508 28.9709 254.124 28.9709C257.431 28.9709 260.314 29.6943 262.773 31.1409C265.253 32.5669 267.175 34.6231 268.539 37.3098C269.924 39.9757 270.606 43.1686 270.585 46.8886V77.2059H257.379V49.2445C257.4 46.3099 256.656 44.0263 255.147 42.3937C253.659 40.761 251.572 39.9447 248.885 39.9447C247.087 39.9447 245.496 40.327 244.111 41.0917C242.747 41.8563 241.673 42.9723 240.887 44.4396C240.123 45.8862 239.73 47.6325 239.71 49.6785Z" fill="white"/>
<path d="M280.977 77.2059V29.5909H294.183V77.2059H280.977ZM287.611 23.4531C285.648 23.4531 283.964 22.8021 282.558 21.5001C281.174 20.1775 280.481 18.5965 280.481 16.7572C280.481 14.9386 281.174 13.3783 282.558 12.0763C283.964 10.7537 285.648 10.0923 287.611 10.0923C289.575 10.0923 291.248 10.7537 292.633 12.0763C294.038 13.3783 294.741 14.9386 294.741 16.7572C294.741 18.5965 294.038 20.1775 292.633 21.5001C291.248 22.8021 289.575 23.4531 287.611 23.4531Z" fill="white"/>
<path d="M330.088 29.5909V39.5107H301.414V29.5909H330.088ZM307.924 18.1832H321.129V62.5742C321.129 63.7935 321.315 64.7442 321.687 65.4262C322.059 66.0875 322.576 66.5525 323.237 66.8211C323.919 67.0898 324.705 67.2241 325.593 67.2241C326.213 67.2241 326.833 67.1725 327.453 67.0691C328.073 66.9451 328.548 66.8521 328.879 66.7901L330.956 76.6169C330.295 76.8236 329.365 77.0612 328.166 77.3299C326.967 77.6192 325.511 77.7949 323.795 77.8569C320.613 77.9809 317.823 77.5572 315.425 76.5859C313.049 75.6146 311.199 74.106 309.877 72.06C308.554 70.0141 307.903 67.4308 307.924 64.3102V18.1832Z" fill="white"/>
<path d="M359.878 78.1359C354.981 78.1359 350.765 77.1439 347.231 75.1599C343.717 73.1553 341.01 70.324 339.109 66.6661C337.208 62.9875 336.257 58.6373 336.257 53.6154C336.257 48.7175 337.208 44.4189 339.109 40.7197C341.01 37.0204 343.686 34.1375 347.138 32.0709C350.61 30.0042 354.681 28.9709 359.351 28.9709C362.493 28.9709 365.417 29.4773 368.124 30.4899C370.852 31.4819 373.229 32.9802 375.254 34.9848C377.3 36.9894 378.891 39.5107 380.028 42.5486C381.165 45.5659 381.733 49.0998 381.733 53.1504V56.7773H341.527V48.5935H369.302C369.302 46.6922 368.889 45.0079 368.062 43.5406C367.236 42.0733 366.089 40.9263 364.621 40.0997C363.175 39.2524 361.49 38.8287 359.568 38.8287C357.564 38.8287 355.787 39.2937 354.237 40.2237C352.707 41.133 351.509 42.3626 350.641 43.9126C349.773 45.4419 349.328 47.1469 349.308 49.0275V56.8083C349.308 59.1643 349.742 61.1999 350.61 62.9152C351.498 64.6305 352.749 65.9531 354.361 66.8831C355.973 67.8131 357.884 68.2781 360.095 68.2781C361.563 68.2781 362.906 68.0714 364.125 67.6581C365.345 67.2448 366.388 66.6248 367.256 65.7981C368.124 64.9715 368.786 63.9589 369.24 62.7602L381.454 63.5662C380.834 66.5008 379.563 69.0634 377.641 71.254C375.74 73.424 373.28 75.1186 370.263 76.3379C367.267 77.5366 363.805 78.1359 359.878 78.1359Z" fill="white"/>
<path d="M390.351 95.0615V29.5909H403.37V37.5888H403.959C404.538 36.3074 405.375 35.0055 406.47 33.6828C407.586 32.3395 409.033 31.2236 410.81 30.3349C412.608 29.4256 414.84 28.9709 417.506 28.9709C420.978 28.9709 424.181 29.8803 427.116 31.6989C430.051 33.4968 432.396 36.2144 434.153 39.8517C435.909 43.4683 436.788 48.0045 436.788 53.4604C436.788 58.7716 435.93 63.2562 434.215 66.9141C432.52 70.5514 430.206 73.3103 427.271 75.1909C424.357 77.0509 421.092 77.9809 417.475 77.9809C414.913 77.9809 412.732 77.5572 410.934 76.7099C409.157 75.8626 407.7 74.7983 406.563 73.517C405.427 72.215 404.559 70.9027 403.959 69.5801H403.556V95.0615H390.351ZM403.277 53.3984C403.277 56.2297 403.67 58.6993 404.455 60.8073C405.241 62.9152 406.377 64.5582 407.865 65.7361C409.353 66.8935 411.162 67.4721 413.29 67.4721C415.44 67.4721 417.258 66.8831 418.746 65.7052C420.234 64.5065 421.36 62.8532 422.125 60.7453C422.91 58.6166 423.303 56.1677 423.303 53.3984C423.303 50.6498 422.921 48.2319 422.156 46.1446C421.391 44.0573 420.265 42.4246 418.777 41.2467C417.289 40.0687 415.46 39.4797 413.29 39.4797C411.141 39.4797 409.322 40.048 407.834 41.1847C406.367 42.3213 405.241 43.9333 404.455 46.0206C403.67 48.1079 403.277 50.5671 403.277 53.3984Z" fill="white"/>
<path d="M459.169 78.1049C456.131 78.1049 453.424 77.5779 451.047 76.5239C448.671 75.4493 446.79 73.8683 445.406 71.781C444.042 69.6731 443.36 67.0485 443.36 63.9072C443.36 61.2619 443.845 59.0403 444.817 57.2423C445.788 55.4444 447.111 53.9977 448.785 52.9024C450.458 51.8071 452.36 50.9805 454.488 50.4225C456.638 49.8645 458.89 49.4718 461.246 49.2445C464.016 48.9552 466.247 48.6865 467.942 48.4385C469.637 48.1699 470.866 47.7772 471.631 47.2605C472.396 46.7439 472.778 45.9792 472.778 44.9666V44.7806C472.778 42.8173 472.158 41.2983 470.918 40.2237C469.699 39.149 467.963 38.6117 465.71 38.6117C463.334 38.6117 461.443 39.1387 460.037 40.1927C458.632 41.226 457.702 42.528 457.247 44.0986L445.034 43.1066C445.654 40.2134 446.873 37.7127 448.691 35.6048C450.51 33.4762 452.856 31.8435 455.728 30.7069C458.622 29.5496 461.97 28.9709 465.772 28.9709C468.417 28.9709 470.949 29.2809 473.367 29.9009C475.806 30.5209 477.965 31.4819 479.846 32.7839C481.747 34.0858 483.245 35.7598 484.341 37.8057C485.436 39.831 485.984 42.2593 485.984 45.0906V77.2059H473.46V70.603H473.088C472.323 72.091 471.3 73.4033 470.019 74.54C468.738 75.6559 467.198 76.5342 465.4 77.1749C463.602 77.7949 461.525 78.1049 459.169 78.1049ZM462.951 68.9911C464.894 68.9911 466.609 68.6087 468.097 67.8441C469.585 67.0588 470.753 66.0048 471.6 64.6822C472.447 63.3595 472.871 61.8612 472.871 60.1873V55.1344C472.458 55.403 471.889 55.651 471.166 55.8784C470.463 56.085 469.668 56.2813 468.779 56.4673C467.89 56.6327 467.002 56.7877 466.113 56.9323C465.224 57.0563 464.419 57.17 463.695 57.2733C462.145 57.5007 460.792 57.8623 459.634 58.3583C458.477 58.8543 457.578 59.5259 456.937 60.3733C456.297 61.1999 455.976 62.2332 455.976 63.4732C455.976 65.2712 456.627 66.6455 457.929 67.5961C459.252 68.5261 460.926 68.9911 462.951 68.9911Z" fill="white"/>
<path d="M517.743 78.1359C512.865 78.1359 508.67 77.1026 505.157 75.0359C501.664 72.9487 498.978 70.0554 497.097 66.3561C495.237 62.6569 494.307 58.3996 494.307 53.5844C494.307 48.7072 495.247 44.4293 497.128 40.7507C499.029 37.0514 501.726 34.1685 505.219 32.1019C508.711 30.0146 512.865 28.9709 517.681 28.9709C521.834 28.9709 525.472 29.7253 528.592 31.2339C531.713 32.7425 534.182 34.8608 536.001 37.5888C537.82 40.3167 538.822 43.52 539.008 47.1985H526.546C526.195 44.8219 525.265 42.9103 523.756 41.4637C522.268 39.9964 520.315 39.2627 517.898 39.2627C515.852 39.2627 514.064 39.8207 512.535 40.9367C511.026 42.032 509.848 43.6336 509.001 45.7416C508.153 47.8495 507.73 50.4018 507.73 53.3984C507.73 56.4363 508.143 59.0196 508.97 61.1482C509.817 63.2769 511.005 64.8992 512.535 66.0151C514.064 67.1311 515.852 67.6891 517.898 67.6891C519.406 67.6891 520.76 67.3791 521.958 66.7591C523.178 66.1391 524.18 65.2402 524.965 64.0622C525.771 62.8635 526.298 61.4272 526.546 59.7533H539.008C538.801 63.3905 537.809 66.5938 536.032 69.3631C534.276 72.1117 531.847 74.261 528.747 75.8109C525.647 77.3609 521.979 78.1359 517.743 78.1359Z" fill="white"/>
<path d="M569.163 78.1359C564.265 78.1359 560.049 77.1439 556.515 75.1599C553.002 73.1553 550.294 70.324 548.393 66.6661C546.492 62.9875 545.541 58.6373 545.541 53.6154C545.541 48.7175 546.492 44.4189 548.393 40.7197C550.294 37.0204 552.971 34.1375 556.422 32.0709C559.894 30.0042 563.965 28.9709 568.636 28.9709C571.777 28.9709 574.701 29.4773 577.408 30.4899C580.136 31.4819 582.513 32.9802 584.538 34.9848C586.584 36.9894 588.176 39.5107 589.312 42.5486C590.449 45.5659 591.017 49.0998 591.017 53.1504V56.7773H550.811V48.5935H578.586C578.586 46.6922 578.173 45.0079 577.346 43.5406C576.52 42.0733 575.373 40.9263 573.906 40.0997C572.459 39.2524 570.775 38.8287 568.853 38.8287C566.848 38.8287 565.071 39.2937 563.521 40.2237C561.991 41.133 560.793 42.3626 559.925 43.9126C559.057 45.4419 558.613 47.1469 558.592 49.0275V56.8083C558.592 59.1643 559.026 61.1999 559.894 62.9152C560.783 64.6305 562.033 65.9531 563.645 66.8831C565.257 67.8131 567.168 68.2781 569.38 68.2781C570.847 68.2781 572.19 68.0714 573.41 67.6581C574.629 67.2448 575.673 66.6248 576.54 65.7981C577.408 64.9715 578.07 63.9589 578.524 62.7602L590.738 63.5662C590.118 66.5008 588.847 69.0634 586.925 71.254C585.024 73.424 582.565 75.1186 579.547 76.3379C576.551 77.5366 573.089 78.1359 569.163 78.1359Z" fill="white"/>
<defs>
<clipPath id="clip0_9_23791">
<rect width="115.353" height="90.4118" fill="white" transform="translate(0.4534)"/>
</clipPath>
</defs>
</svg>
